<?xml version="1.0" encoding="UTF-8"?>
<svg version="1.1" xmlns="http://www.w3.org/2000/svg" width="128" height="128">
<path d="M0 0 C7.26 0 14.52 0 22 0 C22.4125 1.65 22.825 3.3 23.25 5 C25.93396849 14.61550179 29.36955953 21.39145727 38 27 C42.25521565 28.72899278 46.53541787 29.94212713 51 31 C52.98 31.495 52.98 31.495 55 32 C55 38.93 55 45.86 55 53 C44.7119692 53.54869498 35.60052338 52.01232894 26.79760742 46.41479492 C26.08432785 45.96303391 25.37104828 45.51127289 24.63615417 45.04582214 C24.0962233 44.70070084 23.55629242 44.35557953 23 44 C22.99635437 44.63956131 22.99270874 45.27912262 22.98895264 45.93806458 C22.94690346 52.63900132 22.87740255 59.33926737 22.79248047 66.03979492 C22.76438268 68.53516915 22.74311293 71.03063052 22.72900391 73.52612305 C22.70741961 77.12854269 22.66068788 80.72992672 22.609375 84.33203125 C22.60814636 85.43456741 22.60691772 86.53710358 22.60565186 87.67304993 C22.37881912 99.86982758 18.59530113 109.29763996 10 118 C0.6610075 125.95353757 -9.95335731 128.91910712 -22.0625 128.37890625 C-34.24144697 127.20692425 -43.0464181 122.00021685 -50.8125 112.6875 C-57.85562451 103.0297585 -59.91338571 92.77665509 -58.4375 81 C-56.22769452 69.70218654 -49.89350061 60.64045243 -40.39453125 54.24609375 C-31.91825765 49.28466421 -23.76008293 47.47713841 -14 48 C-13.01 48.495 -13.01 48.495 -12 49 C-12 56.26 -12 63.52 -12 71 C-15.3 71 -18.6 71 -22 71 C-27.48261426 73.11472264 -30.7674261 74.95718471 -34 80 C-35.63889879 84.91669638 -36.28524594 91.14888674 -34.10546875 95.984375 C-33.13464595 97.37028458 -32.07333461 98.69187345 -31 100 C-31 100.66 -31 101.32 -31 102 C-29.34015202 102.68346682 -27.67163195 103.34588315 -26 104 C-25.071875 104.391875 -24.14375 104.78375 -23.1875 105.1875 C-17.74026278 106.57601145 -13.68419746 105.90687556 -8.75 103.25 C-5.05534327 100.22709904 -2.51958363 97.5587509 -1 93 C-0.87940021 90.03383126 -0.81456196 87.0894484 -0.79467773 84.12231445 C-0.78477814 83.21479431 -0.77487854 82.30727417 -0.76467896 81.37225342 C-0.7330638 78.36928933 -0.7083064 75.36630942 -0.68359375 72.36328125 C-0.66302424 70.28248175 -0.64202777 68.20168644 -0.62062073 66.12089539 C-0.56539976 60.64154442 -0.51599055 55.16215574 -0.46777344 49.68273926 C-0.41755863 44.09249511 -0.36187245 38.5023058 -0.30664062 32.91210938 C-0.19905871 21.94145133 -0.09811929 10.97074676 0 0 Z " fill="#FFFFFF" transform="translate(66,0)"/>
</svg>
